# xmcd CD database file
#
# Track frame offsets:
#	150
#	26557
#	48645
#	71485
#	94047
#	115722
#	144570
#	176250
#	200495
#	224410
#	241952
#	264862
#
# Disc length: 3828 seconds
#
# Revision: 5
# Processed by: cddbd v1.5.2PL0 Copyright (c) Steve Scherf et al.
# Submitted via: CDex 1.51
#
DISCID=a60ef20c
DTITLE=Junior Wells - Keep On Steppin': The Best Of Junior Wells
DYEAR=1998
DGENRE=Blues
TTITLE0=Oh, Pretty Woman
TTITLE1=Sweet Sixteen
TTITLE2=Give Me One Reason
TTITLE3=Get Down
TTITLE4=Keep On Steppin'
TTITLE5=Broke And Hungry
TTITLE6=Mystery Train
TTITLE7=Use Me
TTITLE8=King Fish Blues
TTITLE9=Why Are People Like That?
TTITLE10=The Train
TTITLE11=Messin' With The Kid
EXTD=YEAR: 1998
EXTT0=
EXTT1=
EXTT2=
EXTT3=
EXTT4=
EXTT5=
EXTT6=
EXTT7=
EXTT8=
EXTT9=
EXTT10=
EXTT11=
PLAYORDER=
